M48
; DRILL file {KiCad 7.0.5} date Thu May 23 15:31:22 2024
; FORMAT={-:-/ absolute / metric / decimal}
; #@! TF.CreationDate,2024-05-23T15:31:22+04:00
; #@! TF.GenerationSoftware,Kicad,Pcbnew,7.0.5
; #@! TF.FileFunction,Plated,1,2,PTH
FMAT,2
METRIC
; #@! TA.AperFunction,Plated,PTH,ComponentDrill
T1C0.800
; #@! TA.AperFunction,Plated,PTH,ComponentDrill
T2C1.000
; #@! TA.AperFunction,Plated,PTH,ComponentDrill
T3C1.200
; #@! TA.AperFunction,Plated,PTH,ComponentDrill
T4C1.300
; #@! TA.AperFunction,Plated,PTH,ComponentDrill
T5C1.330
; #@! TA.AperFunction,Plated,PTH,ComponentDrill
T6C1.400
%
G90
G05
T1
X38.1Y132.08
X38.1Y139.7
X40.64Y132.08
X40.64Y139.7
X43.18Y132.08
X43.18Y139.7
X45.72Y132.08
X45.72Y139.7
X48.26Y132.08
X48.26Y139.7
X50.8Y132.08
X50.8Y139.7
X53.34Y132.08
X53.34Y139.7
X58.42Y137.16
X58.42Y152.4
X60.96Y137.16
X60.96Y152.4
X63.5Y137.16
X63.5Y152.4
X66.04Y137.16
X66.04Y152.4
X68.58Y137.16
X68.58Y152.4
X71.12Y137.16
X71.12Y152.4
X72.4Y158.75
X73.66Y137.16
X73.66Y152.4
X76.2Y137.16
X76.2Y152.4
X76.2Y158.75
X78.74Y137.16
X78.74Y152.4
X81.28Y137.16
X81.28Y152.4
X83.82Y137.16
X83.82Y152.4
X86.36Y137.16
X86.36Y152.4
X88.9Y137.16
X88.9Y152.4
X91.44Y137.16
X91.44Y152.4
X93.98Y137.16
X93.98Y152.4
X96.52Y137.16
X96.52Y152.4
X99.06Y137.16
X99.06Y152.4
X101.6Y137.16
X101.6Y152.4
X104.14Y137.16
X104.14Y152.4
X106.68Y137.16
X106.68Y152.4
X114.3Y133.35
X114.3Y140.97
X116.84Y133.35
X116.84Y140.97
X119.38Y133.35
X119.38Y140.97
X121.92Y133.35
X121.92Y140.97
X124.46Y133.35
X124.46Y140.97
X127.0Y133.35
X127.0Y140.97
X129.54Y133.35
X129.54Y140.97
T2
X24.25Y139.7
X31.75Y139.7
X43.3Y127.0
X50.8Y127.0
X63.5Y165.1
X63.5Y172.6
X76.2Y165.1
X76.2Y172.6
X88.9Y165.1
X88.9Y172.6
X101.6Y165.1
X101.6Y172.6
X114.3Y127.0
X121.8Y127.0
X138.55Y139.7
X146.05Y139.7
T3
X24.25Y158.75
X25.4Y120.65
X31.75Y158.75
X32.9Y120.65
X138.55Y120.65
X138.55Y158.75
X146.05Y120.65
X146.05Y158.75
T4
X77.47Y101.6
X77.47Y184.15
X82.55Y101.6
X82.55Y184.15
T5
X45.72Y171.45
X48.26Y171.45
X50.8Y171.45
X76.2Y114.3
X76.2Y116.84
X76.2Y119.38
X76.2Y127.0
X76.2Y129.54
X76.2Y132.08
X95.25Y115.57
X95.25Y118.11
X95.25Y120.65
X95.25Y127.0
X95.25Y129.54
X95.25Y132.08
X107.95Y171.45
X110.49Y171.45
X113.03Y171.45
T6
X41.91Y165.1
X44.45Y158.75
X57.15Y120.65
X57.15Y133.35
X57.15Y158.75
X57.15Y165.1
X63.5Y120.65
X63.5Y133.35
X69.85Y114.3
X69.85Y129.54
X88.9Y114.3
X88.9Y129.54
X101.6Y120.65
X101.6Y133.35
X107.95Y120.65
X107.95Y133.35
X107.95Y165.1
X114.3Y158.75
X123.19Y165.1
X127.0Y158.75
T0
M30
